<svg xmlns="http://www.w3.org/2000/svg" width="16" height="21" viewBox="0 0 16 21">
  <g fill="#FFF" fill-rule="evenodd" transform="translate(-6 -3)">
    <path fill-rule="nonzero" d="M8,10.25 L20,10.25 C20.9664983,10.25 21.75,11.0335017 21.75,12 L21.75,22 C21.75,22.9664983 20.9664983,23.75 20,23.75 L8,23.75 C7.03350169,23.75 6.25,22.9664983 6.25,22 L6.25,12 C6.25,11.0335017 7.03350169,10.25 8,10.25 Z M8,11.75 C7.86192881,11.75 7.75,11.8619288 7.75,12 L7.75,22 C7.75,22.1380712 7.86192881,22.25 8,22.25 L20,22.25 C20.1380712,22.25 20.25,22.1380712 20.25,22 L20.25,12 C20.25,11.8619288 20.1380712,11.75 20,11.75 L8,11.75 Z"/>
    <path fill-rule="nonzero" d="M17.5,11.1875 L19,11.75 L19,8 C19,5.23857625 16.7614237,3 14,3 C12.6615526,3 11.4459373,3.52590631 10.5485219,4.38235095 C9.59443061,5.29288395 9,6.57702362 9,8 L10.5,8 C10.5,7.02906617 10.8952926,6.12487405 11.5841221,5.46749246 C12.2316914,4.84948746 13.0864454,4.5 14,4.5 C15.9329966,4.5 17.5,6.06700338 17.5,8 L17.5,11.1875 Z"/>
    <circle cx="14" cy="17" r="1.5"/>
  </g>
</svg>
