<svg xmlns="http://www.w3.org/2000/svg" width="36" height="36" viewBox="0 0 36 36">
  <path fill="#225BAB" fill-rule="evenodd" d="M0,18 C0,8.05887401 8.05887401,0 18,0 C27.941126,0 36,8.05887401 36,18 C36,27.941126 27.941126,36 18,36 C8.05887401,36 0,27.941126 0,18 Z M25.5,8 L10.5,8 C9.11929687,8 8,9.11929687 8,10.5 L8,25.5 C8,26.880625 9.11929687,28 10.5,28 L25.5,28 C26.8807031,28 28,26.880625 28,25.5 L28,10.5 C28,9.11929687 26.8807031,8 25.5,8 Z M25.3333594,18.9959375 C25.329404,19.3613193 25.0320829,19.6554392 24.6666797,19.6554392 C24.3012764,19.6554392 24.0039554,19.3613193 24,18.9959375 L24,13 C24.0039554,12.6346182 24.3012764,12.3404983 24.6666797,12.3404983 C25.0320829,12.3404983 25.329404,12.6346182 25.3333594,13 L25.3333594,18.9959375 Z M25.1007031,23.1688281 C24.9976562,23.2570312 22.5280469,25.329375 18,25.329375 C13.4720312,25.329375 11.0025,23.2569531 10.8994531,23.16875 C10.6199555,22.9290831 10.5876046,22.5082415 10.8271875,22.2286719 C11.0662288,21.9495782 11.4860807,21.9166555 11.7657031,22.1550781 C11.8048437,22.1878906 14.0101562,23.9959375 18.0000781,23.9959375 C22.0400781,23.9959375 24.21125,22.1748437 24.2327344,22.1564844 C24.5117187,21.916875 24.9333594,21.9490625 25.1728125,22.22875 C25.4124782,22.5082635 25.3801948,22.9291369 25.1007031,23.1688281 Z M10.6666406,13 C10.670596,12.6346182 10.9679171,12.3404983 11.3333203,12.3404983 C11.6987236,12.3404983 11.9960446,12.6346182 12,13 L12,18.9959375 C11.9960446,19.3613193 11.6987236,19.6554392 11.3333203,19.6554392 C10.9679171,19.6554392 10.670596,19.3613193 10.6666406,18.9959375 L10.6666406,13 Z M14.0000781,11.6666406 C14.005654,11.3024444 14.3024798,11.0101282 14.6667187,11.0101282 C15.0309577,11.0101282 15.3277835,11.3024444 15.3333594,11.6666406 L15.3333594,20.5729688 C15.3277835,20.937165 15.0309577,21.2294812 14.6667187,21.2294812 C14.3024798,21.2294812 14.005654,20.937165 14.0000781,20.5729688 L14.0000781,11.6667188 L14.0000781,11.6666406 Z M17.3333594,11.3292969 C17.3333387,11.1524864 17.4035671,10.9829117 17.528591,10.8578879 C17.6536149,10.732864 17.8231896,10.6626355 18,10.6626562 C18.176824,10.6626148 18.3464187,10.7328341 18.4714595,10.8578603 C18.5965003,10.9828864 18.6667395,11.1524729 18.6667188,11.3292969 L18.6667188,20.9959375 C18.6627634,21.3613193 18.3654423,21.6554392 18.0000391,21.6554392 C17.6346358,21.6554392 17.3373148,21.3613193 17.3333594,20.9959375 L17.3333594,11.3292969 Z M20.6667187,11.6666406 C20.6722946,11.3024444 20.9691205,11.0101282 21.3333594,11.0101282 C21.6975983,11.0101282 21.9944241,11.3024444 22,11.6666406 L22,20.5729687 C21.9944241,20.937165 21.6975983,21.2294812 21.3333594,21.2294812 C20.9691205,21.2294812 20.6722946,20.937165 20.6667187,20.5729687 L20.6667187,11.6667187 L20.6667187,11.6666406 Z"/>
</svg>
