<svg xmlns="http://www.w3.org/2000/svg" width="20" height="22" viewBox="0 0 20 22">
  <g fill="#FFF" transform="translate(-4 -3)">
    <path d="M14.0628895,23.2718454 C19.3556526,20.3356514 22.1436981,15.4450407 22.4679773,8.41629981 C19.5878148,8.10130599 16.7374809,6.89880814 13.9285656,4.83544087 C10.7734948,6.83307552 7.98517872,8.02415355 5.53613734,8.3836737 C5.88139508,14.8810486 8.70211176,19.7990584 14.0628895,23.2718454 Z M4,7 C6.66666667,7 10,5.66666667 14,3 C17.3333333,5.66666667 20.6666667,7 24,7 C24,15.6666667 20.6666667,21.6666667 14,25 C7.33333333,21 4,15 4,7 Z"/>
    <polygon points="13.25 8 14.75 8 14.75 18 13.25 18" transform="rotate(45 14 13)"/>
    <polygon points="9 13.75 9 12.25 19 12.25 19 13.75" transform="rotate(45 14 13)"/>
  </g>
</svg>
