<svg xmlns="http://www.w3.org/2000/svg" width="36" height="36" viewBox="0 0 36 36">
  <g fill="none" fill-rule="evenodd">
    <path fill="#225BAB" d="M0,18 C0,8.05887401 8.05887401,0 18,0 C27.941126,0 36,8.05887401 36,18 C36,27.941126 27.941126,36 18,36 C8.05887401,36 0,27.941126 0,18 Z"/>
    <path fill="#FFF" fill-rule="nonzero" d="M9.5,12.5 L9.5,23.5 L26.5,23.5 L26.5,12.5 L9.5,12.5 Z M9,11 L27,11 C27.5522847,11 28,11.4477153 28,12 L28,24 C28,24.5522847 27.5522847,25 27,25 L9,25 C8.44771525,25 8,24.5522847 8,24 L8,12 C8,11.4477153 8.44771525,11 9,11 Z"/>
    <polygon fill="#FFF" fill-rule="nonzero" points="26.584 11.376 27.416 12.624 18 18.901 8.584 12.624 9.416 11.376 18 17.099"/>
  </g>
</svg>
