<svg xmlns="http://www.w3.org/2000/svg" width="22" height="22" viewBox="0 0 22 22">
  <g fill="#FFF" fill-rule="evenodd" transform="translate(-3 -3)">
    <path fill-rule="nonzero" d="M15.2440755,22.4411203 L15.8481403,23.0517193 C15.875193,23.0790646 15.908191,23.0997987 15.9445661,23.1123076 C16.0751326,23.157208 16.2173766,23.0877618 16.2622769,22.9571953 L16.5415916,22.1449707 C16.8719267,21.2166686 17.8728068,20.7412857 18.7833381,21.0654025 L19.5925107,21.3534392 C19.6287491,21.3663388 19.6674754,21.3707022 19.7056757,21.3661899 C19.8427935,21.349993 19.9408194,21.2257068 19.9246225,21.0885889 L19.8238653,20.2356098 C19.7187117,19.2559114 20.4142126,18.3933406 21.375202,18.2902951 L22.2292157,18.1987204 C22.2674623,18.1946193 22.3042467,18.1817478 22.3367061,18.1611079 C22.4532175,18.0870217 22.48761,17.9325119 22.4135239,17.8160006 L21.952651,17.0912099 C21.4328357,16.2541565 21.6852049,15.1752406 22.5063167,14.6654421 L23.2360237,14.2123935 C23.2687032,14.1921039 23.2962602,14.164547 23.3165497,14.1318674 C23.3893781,14.0145657 23.3533253,13.8604349 23.2360237,13.7876065 L22.5063167,13.3345579 C21.6747954,12.8059383 21.4340482,11.7243697 21.952651,10.9087901 L22.4135239,10.1839994 C22.4341638,10.15154 22.4470353,10.1147556 22.4511364,10.076509 C22.4658572,9.9392248 22.3664999,9.81600041 22.2292157,9.80127961 L21.375202,9.70970491 C20.3966678,9.59421864 19.710487,8.72421536 19.8238653,7.76439019 L19.9246225,6.91141109 C19.9291348,6.87321083 19.9247714,6.83448451 19.9118718,6.7982461 C19.8655694,6.6681702 19.7225866,6.60025836 19.5925107,6.64656077 L18.7833381,6.93459747 C17.8516017,7.25511802 16.8558938,6.76899483 16.5415916,5.85502925 L16.2622769,5.04280473 C16.249768,5.00642964 16.2290339,4.97343165 16.2016886,4.94637889 C16.1035337,4.84927441 15.9452448,4.8501259 15.8481403,4.94828074 L15.2440755,5.55887966 C14.5436786,6.25192399 13.4356559,6.24596356 12.7559245,5.55887966 L12.1518597,4.94828074 C12.124807,4.92093536 12.091809,4.90020135 12.0554339,4.88769237 C11.9248674,4.84279205 11.7826234,4.91223822 11.7377231,5.04280473 L11.4584084,5.85502925 C11.1280733,6.78333144 10.1271932,7.2587143 9.21666189,6.93459747 L8.40748934,6.64656077 C8.37125093,6.63366118 8.33252462,6.62929777 8.29432435,6.63381013 C8.15720647,6.65000703 8.05918064,6.77429321 8.07537754,6.91141109 L8.17613473,7.76439019 C8.28128829,8.7440886 7.5857874,9.60665935 6.62479801,9.70970491 L5.77078429,9.80127961 C5.73253769,9.80538074 5.69575328,9.81825217 5.66329387,9.83889214 C5.54678249,9.91297826 5.51239003,10.0674881 5.58647615,10.1839994 L6.047349,10.9087901 C6.56716429,11.7458435 6.31479506,12.8247594 5.49368334,13.3345579 L4.76397634,13.7876065 C4.73129676,13.8078961 4.70373985,13.835453 4.68345028,13.8681326 C4.61062192,13.9854343 4.64667467,14.1395651 4.76397634,14.2123935 L5.49368334,14.6654421 C6.32520457,15.1940617 6.56595182,16.2756303 6.047349,17.0912099 L5.58647615,17.8160006 C5.56583617,17.84846 5.55296475,17.8852444 5.54886362,17.923491 C5.53414283,18.0607752 5.6335001,18.1839996 5.77078429,18.1987204 L6.62479801,18.2902951 C7.6033322,18.4057814 8.289513,19.2757846 8.17613473,20.2356098 L8.07537754,21.0885889 C8.07086517,21.1267892 8.07522858,21.1655155 8.08812817,21.2017539 C8.13443057,21.3318298 8.27741344,21.3997416 8.40748934,21.3534392 L9.21666189,21.0654025 C10.1483983,20.744882 11.1441062,21.2310052 11.4584084,22.1449707 L11.7377231,22.9571953 C11.750232,22.9935704 11.7709661,23.0265684 11.7983114,23.0536211 C11.8964663,23.1507256 12.0547552,23.1498741 12.1518597,23.0517193 L12.7559245,22.4411203 C13.4563214,21.748076 14.5643441,21.7540364 15.2440755,22.4411203 Z M13.2182101,24.1066585 C12.5384788,24.7937424 11.4304561,24.7997028 10.7433722,24.1199715 C10.5519545,23.9306022 10.4068164,23.6996163 10.3192536,23.4449906 L10.0399389,22.6327661 C9.99503858,22.5021996 9.85279461,22.4327534 9.7222281,22.4776537 L8.91051686,22.7665788 C7.99998555,23.0906956 6.99910547,22.6153127 6.67498864,21.7047814 C6.58469152,21.4511125 6.55414767,21.1800283 6.58573422,20.9126265 L6.68649141,20.0596474 C6.70268831,19.9225295 6.60466248,19.7982433 6.4675446,19.7820464 L5.61085816,19.6901706 C4.64986878,19.587125 3.95436788,18.7245543 4.05741344,17.7635649 C4.08612135,17.4958387 4.17622131,17.2383478 4.32070113,17.0111319 L4.78157399,16.2863412 C4.8556601,16.1698298 4.82126764,16.01532 4.70475627,15.9412339 L3.9727719,15.4867543 C3.15166017,14.9769558 2.89929094,13.8980399 3.40908945,13.0769281 C3.55111643,12.8481711 3.7440148,12.6552727 3.9727719,12.5132457 L4.70247889,12.0601971 C4.81978057,11.9873687 4.85583331,11.8332379 4.78300496,11.7159362 L4.32070113,10.9888681 C3.80209831,10.1732885 4.04284556,9.09171995 4.85842517,8.57311713 C5.08564105,8.42863731 5.34313194,8.33853735 5.61085816,8.30982944 L6.46487188,8.21825473 C6.60215608,8.20353394 6.70151335,8.08030955 6.68679255,7.94302535 L6.58573422,7.08737353 C6.47235595,6.12754836 7.15853674,5.25754508 8.11836191,5.14416681 C8.38576379,5.11258027 8.65684797,5.14312412 8.91051686,5.23342124 L9.7196894,5.52145795 C9.8497653,5.56776035 9.99274817,5.49984851 10.0390506,5.36977261 L10.3192536,4.5550094 C10.6335558,3.64104381 11.6292636,3.15492063 12.5432292,3.46922287 C12.7978549,3.55678571 13.0288408,3.70192379 13.2182101,3.89334148 L13.8222749,4.5039404 C13.9193794,4.60209524 14.0776684,4.60294673 14.1758232,4.50584225 L14.7817899,3.89334148 C15.4615212,3.20625758 16.5695439,3.20029715 17.2566278,3.8800285 C17.4480455,4.06939781 17.5931836,4.30038374 17.6807464,4.5550094 L17.9600611,5.36723392 C18.0049614,5.49780043 18.1472054,5.5672466 18.2777719,5.52234628 L19.0894831,5.23342124 C20.0000145,4.90930441 21.0008945,5.38468728 21.3250114,6.29521859 C21.4153085,6.54888747 21.4458523,6.81997166 21.4142658,7.08737353 L21.3135086,7.94035263 C21.2973117,8.07747051 21.3953375,8.20175669 21.5324554,8.21795359 L22.3891418,8.30982944 C23.3501312,8.41287499 24.0456321,9.27544574 23.9425866,10.2364351 C23.9138786,10.5041613 23.8237787,10.7616522 23.6792989,10.9888681 L23.218426,11.7136588 C23.1443399,11.8301702 23.1787324,11.98468 23.2952437,12.0587661 L24.0272281,12.5132457 C24.8483398,13.0230442 25.1007091,14.1019601 24.5909106,14.9230719 C24.4488836,15.1518289 24.2559852,15.3447273 24.0272281,15.4867543 L23.2975211,15.9398029 C23.1802194,16.0126313 23.1441667,16.1667621 23.216995,16.2840638 L23.6792989,17.0111319 C24.1979017,17.8267115 23.9571544,18.9082801 23.1415748,19.4268829 C22.9143589,19.5713627 22.6568681,19.6614627 22.3891418,19.6901706 L21.5351281,19.7817453 C21.3978439,19.7964661 21.2984867,19.9196905 21.3132074,20.0569747 L21.4142658,20.9126265 C21.5276441,21.8724516 20.8414633,22.7424549 19.8816381,22.8558332 C19.6142362,22.8874197 19.343152,22.8568759 19.0894831,22.7665788 L18.2803106,22.4785421 C18.1502347,22.4322396 18.0072518,22.5001515 17.9609494,22.6302274 L17.6807464,23.4449906 C17.3664442,24.3589562 16.3707364,24.8450794 15.4567708,24.5307771 C15.2021451,24.4432143 14.9711592,24.2980762 14.7817899,24.1066585 L14.1777251,23.4960596 C14.0806206,23.3979048 13.9223316,23.3970533 13.8241768,23.4941577 L13.2182101,24.1066585 Z"/>
    <path d="M12.8175,18 L11.3325,18 L15.1605,10.399 L16.6455,10.399 L12.8175,18 Z M16.9645,18.187 C16.6784986,18.187 16.4108346,18.1411671 16.1615,18.0495 C15.9121654,17.9578329 15.6958343,17.8166676 15.5125,17.626 C15.3291658,17.4353324 15.1861672,17.1878349 15.0835,16.8835 C14.9808328,16.5791651 14.9295,16.2180021 14.9295,15.8 C14.9295,15.3819979 14.9826661,15.0208349 15.089,14.7165 C15.1953339,14.4121651 15.3401658,14.161001 15.5235,13.963 C15.7068342,13.764999 15.9213321,13.6183338 16.167,13.523 C16.4126679,13.4276662 16.6784986,13.38 16.9645,13.38 C17.2578348,13.38 17.5291654,13.4276662 17.7785,13.523 C18.0278346,13.6183338 18.2423324,13.764999 18.422,13.963 C18.6016676,14.161001 18.7428328,14.4121651 18.8455,14.7165 C18.9481672,15.0208349 18.9995,15.3819979 18.9995,15.8 C18.9995,16.2180021 18.9500005,16.5791651 18.851,16.8835 C18.7519995,17.1878349 18.6108342,17.4353324 18.4275,17.626 C18.2441658,17.8166676 18.0278346,17.9578329 17.7785,18.0495 C17.5291654,18.1411671 17.2578348,18.187 16.9645,18.187 Z M16.9645,17.109 C17.2065012,17.109 17.3953327,17.0155009 17.531,16.8285 C17.6666673,16.6414991 17.7345,16.2986692 17.7345,15.8 C17.7345,15.3013308 17.6666673,14.9548343 17.531,14.7605 C17.3953327,14.5661657 17.2065012,14.469 16.9645,14.469 C16.7298322,14.469 16.5446673,14.5661657 16.409,14.7605 C16.2733327,14.9548343 16.2055,15.3013308 16.2055,15.8 C16.2055,16.2986692 16.2733327,16.6414991 16.409,16.8285 C16.5446673,17.0155009 16.7298322,17.109 16.9645,17.109 Z M11.0245,15.019 C10.7384986,15.019 10.4708346,14.9731671 10.2215,14.8815 C9.97216542,14.7898329 9.75583425,14.6486676 9.5725,14.458 C9.38916575,14.2673324 9.24616718,14.0198349 9.1435,13.7155 C9.04083282,13.4111651 8.9895,13.0500021 8.9895,12.632 C8.9895,12.2139979 9.04266614,11.8528349 9.149,11.5485 C9.25533387,11.2441651 9.40016575,10.993001 9.5835,10.795 C9.76683425,10.596999 9.9813321,10.4503338 10.227,10.355 C10.4726679,10.2596662 10.7384986,10.212 11.0245,10.212 C11.3178348,10.212 11.5891654,10.2596662 11.8385,10.355 C12.0878346,10.4503338 12.3023324,10.596999 12.482,10.795 C12.6616676,10.993001 12.8028328,11.2441651 12.9055,11.5485 C13.0081672,11.8528349 13.0595,12.2139979 13.0595,12.632 C13.0595,13.0500021 13.0100005,13.4111651 12.911,13.7155 C12.8119995,14.0198349 12.6708343,14.2673324 12.4875,14.458 C12.3041658,14.6486676 12.0878346,14.7898329 11.8385,14.8815 C11.5891654,14.9731671 11.3178348,15.019 11.0245,15.019 Z M11.0245,13.941 C11.2665012,13.941 11.4553327,13.8475009 11.591,13.6605 C11.7266673,13.4734991 11.7945,13.1306692 11.7945,12.632 C11.7945,12.1333308 11.7266673,11.7868343 11.591,11.5925 C11.4553327,11.3981657 11.2665012,11.301 11.0245,11.301 C10.7898322,11.301 10.6046673,11.3981657 10.469,11.5925 C10.3333327,11.7868343 10.2655,12.1333308 10.2655,12.632 C10.2655,13.1306692 10.3333327,13.4734991 10.469,13.6605 C10.6046673,13.8475009 10.7898322,13.941 11.0245,13.941 Z"/>
  </g>
</svg>
