<svg xmlns="http://www.w3.org/2000/svg" width="20" height="19" viewBox="0 0 20 19">
  <g fill="#FFF" fill-rule="evenodd" transform="translate(-4 -5)">
    <path d="M9.1953882,18.7651765 C6.20398927,17.9692734 4,15.2420213 4,12 C4,8.13400675 7.13400675,5 11,5 C13.7950178,5 16.2074312,6.63812453 17.32953,9.00666354 C17.2202373,9.00223545 17.1103797,9 17,9 C12.581722,9 9,12.581722 9,17 C9,17.606524 9.06749659,18.1972834 9.1953882,18.7651765 Z"/>
    <path fill-rule="nonzero" d="M17,24 C13.1340068,24 10,20.8659932 10,17 C10,13.1340068 13.1340068,10 17,10 C20.8659932,10 24,13.1340068 24,17 C24,20.8659932 20.8659932,24 17,24 Z M17,22.5 C20.0375661,22.5 22.5,20.0375661 22.5,17 C22.5,13.9624339 20.0375661,11.5 17,11.5 C13.9624339,11.5 11.5,13.9624339 11.5,17 C11.5,20.0375661 13.9624339,22.5 17,22.5 Z"/>
  </g>
</svg>
