<svg xmlns="http://www.w3.org/2000/svg" width="14" height="14" viewBox="0 0 14 14">
  <path fill="#225BAB" d="M10,17 C6.13400675,17 3,13.8659932 3,10 C3,6.13400675 6.13400675,3 10,3 C13.8659932,3 17,6.13400675 17,10 C17,13.8659932 13.8659932,17 10,17 Z M7.68000604,13.4799939 L8.79000601,13.4799939 L12.2800059,6.5699939 L11.1700059,6.5699939 L7.68000604,13.4799939 Z M12.5800059,13.6499939 C12.8200071,13.6499939 13.0500048,13.6116609 13.2700059,13.5349939 C13.490007,13.4583268 13.6816717,13.3349947 13.8450059,13.1649939 C14.00834,12.994993 14.1383387,12.7733286 14.2350058,12.4999939 C14.331673,12.2266592 14.3800058,11.8899959 14.3800058,11.4899939 C14.3800058,10.7633236 14.2133408,10.218329 13.8800059,9.8549939 C13.5466709,9.49165875 13.1133419,9.3099939 12.5800059,9.3099939 C12.3266713,9.3099939 12.090007,9.35499345 11.8700059,9.4449939 C11.6500048,9.53499435 11.4600067,9.669993 11.3000059,9.8499939 C11.1400051,10.0299948 11.0133397,10.2566592 10.9200059,10.5299939 C10.8266721,10.8033286 10.7800059,11.1233254 10.7800059,11.4899939 C10.7800059,12.2166642 10.941671,12.7583254 11.2650059,13.1149939 C11.5883409,13.4716623 12.0266698,13.6499939 12.5800059,13.6499939 Z M12.5800059,12.8299939 C12.3066712,12.8299939 12.1000066,12.7299949 11.9600059,12.5299939 C11.8200052,12.3299929 11.7500059,11.9833297 11.7500059,11.4899939 C11.7500059,11.0099915 11.8216719,10.6649949 11.9650059,10.4549939 C12.10834,10.2449928 12.3133379,10.1399939 12.5800059,10.1399939 C12.8533406,10.1399939 13.0600052,10.2449928 13.2000059,10.4549939 C13.3400066,10.6649949 13.4100059,11.0099915 13.4100059,11.4899939 C13.4100059,11.9833297 13.3400066,12.3299929 13.2000059,12.5299939 C13.0600052,12.7299949 12.8533406,12.8299939 12.5800059,12.8299939 Z M7.40000605,10.7399939 C7.64000724,10.7399939 7.87000493,10.7016609 8.09000603,10.6249939 C8.31000712,10.5483268 8.50167187,10.4249947 8.66500601,10.2549939 C8.82834016,10.084993 8.95833885,9.8633286 9.055006,9.5899939 C9.15167315,9.3166592 9.20000599,8.9799959 9.20000599,8.5799939 C9.20000599,7.8533236 9.033341,7.30832905 8.70000601,6.9449939 C8.36667102,6.58165875 7.93334203,6.3999939 7.40000605,6.3999939 C7.14667146,6.3999939 6.91000716,6.44499345 6.69000607,6.5349939 C6.47000498,6.62499435 6.28000688,6.759993 6.12000609,6.9399939 C5.96000529,7.1199948 5.8333399,7.3466592 5.7400061,7.6199939 C5.6466723,7.8933286 5.6000061,8.2133254 5.6000061,8.5799939 C5.6000061,9.3066642 5.76167115,9.84832545 6.08500609,10.2049939 C6.40834103,10.5616623 6.84666997,10.7399939 7.40000605,10.7399939 Z M7.40000605,9.9199939 C7.12667136,9.9199939 6.92000676,9.8199949 6.78000607,9.6199939 C6.64000537,9.4199929 6.57000607,9.0733297 6.57000607,8.5799939 C6.57000607,8.0999915 6.64167202,7.75499495 6.78500607,7.5449939 C6.92834011,7.33499285 7.13333806,7.2299939 7.40000605,7.2299939 C7.67334074,7.2299939 7.88000533,7.33499285 8.02000603,7.5449939 C8.16000673,7.75499495 8.23000602,8.0999915 8.23000602,8.5799939 C8.23000602,9.0733297 8.16000673,9.4199929 8.02000603,9.6199939 C7.88000533,9.8199949 7.67334074,9.9199939 7.40000605,9.9199939 Z" transform="translate(-3 -3)"/>
</svg>
