<svg xmlns="http://www.w3.org/2000/svg" width="36" height="36" viewBox="0 0 36 36">
  <path fill="#9B9B9B" fill-rule="evenodd" d="M818,1164 C808.058875,1164 800,1155.94113 800,1146 C800,1136.05887 808.058875,1128 818,1128 C827.941125,1128 836,1136.05887 836,1146 C836,1155.94113 827.941125,1164 818,1164 Z M816.34704,1148.45131 C815.606404,1149.11968 815.649744,1150.13711 816.456521,1150.73316 L822.26,1155.02085 C823.087775,1155.47759 823.68521,1155.24111 823.8914,1154.25232 L826.84415,1140.33787 C827.14646,1139.12585 826.382135,1138.57613 825.59024,1138.93565 L808.25174,1145.6213 C807.068225,1146.096 807.075125,1146.75628 808.03601,1147.05049 L811.627561,1148.17148 C812.101366,1148.31936 812.828191,1148.22301 813.242913,1147.96137 L822.78641,1141.94049 C823.272695,1141.6456 823.719005,1141.80414 823.35269,1142.12925 L816.34704,1148.45131 Z" transform="translate(-800 -1128)"/>
</svg>
