<svg xmlns="http://www.w3.org/2000/svg" width="240" height="80" viewBox="0 0 240 80">
  <g fill="none" fill-rule="evenodd">
    <rect width="240" height="80" fill="#D8D8D8"/>
    <path fill="#4A4A4A" d="M100.19,33.72 L100.19,45.9 L107.27,45.9 L106.97,48 L97.77,48 L97.77,33.72 L100.19,33.72 Z M113.49,46.48 C114.450005,46.48 115.153331,46.1500033 115.6,45.49 C116.046669,44.8299967 116.27,43.9266724 116.27,42.78 C116.27,41.646661 116.046669,40.7533366 115.6,40.1 C115.153331,39.4466634 114.450005,39.12 113.49,39.12 C112.529995,39.12 111.826669,39.4499967 111.38,40.11 C110.933331,40.7700033 110.71,41.6599944 110.71,42.78 C110.71,43.913339 110.926665,44.81333 111.36,45.48 C111.793335,46.14667 112.503328,46.48 113.49,46.48 Z M113.47,48.32 C111.843325,48.32 110.583338,47.8400048 109.69,46.88 C108.796662,45.9199952 108.35,44.5600088 108.35,42.8 C108.35,41.9733292 108.466666,41.2200034 108.7,40.54 C108.933335,39.8599966 109.269998,39.2800024 109.71,38.8 C110.150002,38.3199976 110.689997,37.946668 111.33,37.68 C111.970003,37.413332 112.696663,37.28 113.51,37.28 C114.336671,37.28 115.069997,37.4166653 115.71,37.69 C116.350003,37.9633347 116.886664,38.3399976 117.32,38.82 C117.753335,39.3000024 118.079999,39.8766633 118.3,40.55 C118.520001,41.2233367 118.63,41.959996 118.63,42.76 C118.63,43.6666712 118.503335,44.4633299 118.25,45.15 C117.996665,45.8366701 117.640002,46.4166643 117.18,46.89 C116.719998,47.3633357 116.17667,47.7199988 115.55,47.96 C114.92333,48.2000012 114.230004,48.32 113.47,48.32 Z M123.03,48.8 C123.150001,49.3600028 123.386665,49.7499989 123.74,49.97 C124.093335,50.1900011 124.669996,50.3 125.47,50.3 C126.083336,50.3 126.576665,50.1800012 126.95,49.94 C127.323335,49.6999988 127.593333,49.3333358 127.76,48.84 C127.926668,48.3466642 128.01,47.666671 128.01,46.8 L128.01,46.1 C127.636665,46.633336 127.170003,47.0399986 126.61,47.32 C126.049997,47.6000014 125.41667,47.74 124.71,47.74 C123.309993,47.74 122.230004,47.2800046 121.47,46.36 C120.709996,45.4399954 120.33,44.1666748 120.33,42.54 C120.33,40.9533254 120.743329,39.6800048 121.57,38.72 C122.396671,37.7599952 123.503326,37.28 124.89,37.28 C126.196673,37.28 127.256663,37.8066614 128.07,38.86 L128.07,37.6 L130.29,37.6 L130.29,46.44 C130.29,48.44001 129.903337,49.8833289 129.13,50.77 C128.356663,51.6566711 127.136675,52.1 125.47,52.1 C123.963326,52.1 122.833337,51.8366693 122.08,51.31 C121.326663,50.7833307 120.883334,49.9466724 120.75,48.8 L123.03,48.8 Z M128.03,42.42 C128.03,41.3399946 127.803336,40.5233361 127.35,39.97 C126.896664,39.4166639 126.230004,39.14 125.35,39.14 C124.523329,39.14 123.876669,39.4299971 123.41,40.01 C122.943331,40.5900029 122.71,41.4266612 122.71,42.52 C122.71,43.6000054 122.933331,44.4366637 123.38,45.03 C123.826669,45.6233363 124.449996,45.92 125.25,45.92 C126.130004,45.92 126.813331,45.6433361 127.3,45.09 C127.786669,44.5366639 128.03,43.7533384 128.03,42.74 L128.03,42.42 Z M137.65,46.48 C138.610005,46.48 139.313331,46.1500033 139.76,45.49 C140.206669,44.8299967 140.43,43.9266724 140.43,42.78 C140.43,41.646661 140.206669,40.7533366 139.76,40.1 C139.313331,39.4466634 138.610005,39.12 137.65,39.12 C136.689995,39.12 135.986669,39.4499967 135.54,40.11 C135.093331,40.7700033 134.87,41.6599944 134.87,42.78 C134.87,43.913339 135.086664,44.81333 135.52,45.48 C135.953336,46.14667 136.663328,46.48 137.65,46.48 Z M137.63,48.32 C136.003325,48.32 134.743338,47.8400048 133.85,46.88 C132.956662,45.9199952 132.51,44.5600088 132.51,42.8 C132.51,41.9733292 132.626666,41.2200034 132.86,40.54 C133.093334,39.8599966 133.429998,39.2800024 133.87,38.8 C134.310002,38.3199976 134.849997,37.946668 135.49,37.68 C136.130003,37.413332 136.856663,37.28 137.67,37.28 C138.496671,37.28 139.229997,37.4166653 139.87,37.69 C140.510003,37.9633347 141.046664,38.3399976 141.48,38.82 C141.913336,39.3000024 142.239999,39.8766633 142.46,40.55 C142.680001,41.2233367 142.79,41.959996 142.79,42.76 C142.79,43.6666712 142.663335,44.4633299 142.41,45.15 C142.156665,45.8366701 141.800002,46.4166643 141.34,46.89 C140.879998,47.3633357 140.33667,47.7199988 139.71,47.96 C139.08333,48.2000012 138.390004,48.32 137.63,48.32 Z"/>
  </g>
</svg>
